<svg width="60" height="30" viewBox="0 0 60 30" fill="none" xmlns="http://www.w3.org/2000/svg">
<path d="M13.8551 14.2521L10.3928 14.4652C10.3336 14.1693 10.2063 13.9029 10.011 13.6662C9.8157 13.4235 9.55824 13.2312 9.23864 13.0891C8.92495 12.9412 8.54912 12.8672 8.11115 12.8672C7.52521 12.8672 7.03101 12.9915 6.62855 13.2401C6.22609 13.4827 6.02486 13.8082 6.02486 14.2166C6.02486 14.5421 6.15507 14.8174 6.41548 15.0423C6.6759 15.2672 7.12275 15.4477 7.75604 15.5838L10.2241 16.081C11.5498 16.3532 12.5382 16.7912 13.1893 17.3949C13.8403 17.9986 14.1658 18.7917 14.1658 19.7741C14.1658 20.6679 13.9025 21.4521 13.3757 22.1268C12.8549 22.8015 12.1387 23.3282 11.2273 23.707C10.3217 24.0799 9.27711 24.2663 8.0934 24.2663C6.28823 24.2663 4.85002 23.8905 3.77876 23.1388C2.71342 22.3813 2.08902 21.3514 1.90554 20.0494L5.62536 19.854C5.73781 20.4045 6.01006 20.8247 6.44212 21.1147C6.87417 21.3988 7.42756 21.5408 8.10227 21.5408C8.76515 21.5408 9.29782 21.4136 9.70028 21.1591C10.1087 20.8987 10.3158 20.5643 10.3217 20.1559C10.3158 19.8126 10.1708 19.5315 9.88672 19.3125C9.60263 19.0876 9.16465 18.916 8.5728 18.7976L6.21129 18.3271C4.87962 18.0607 3.88826 17.5991 3.23722 16.9421C2.59209 16.2852 2.26953 15.4477 2.26953 14.4297C2.26953 13.5537 2.50627 12.7991 2.97976 12.1658C3.45916 11.5326 4.13092 11.0443 4.99503 10.701C5.86506 10.3577 6.88305 10.1861 8.04901 10.1861C9.77131 10.1861 11.1267 10.5501 12.1151 11.2781C13.1094 12.006 13.6894 12.9974 13.8551 14.2521ZM16.5473 24V10.3636H20.3293V24H16.5473ZM18.4472 8.60582C17.8849 8.60582 17.4026 8.41939 17.0001 8.04652C16.6035 7.66773 16.4053 7.21496 16.4053 6.68821C16.4053 6.16738 16.6035 5.72053 17.0001 5.34766C17.4026 4.96887 17.8849 4.77947 18.4472 4.77947C19.0094 4.77947 19.4888 4.96887 19.8854 5.34766C20.2878 5.72053 20.4891 6.16738 20.4891 6.68821C20.4891 7.21496 20.2878 7.66773 19.8854 8.04652C19.4888 8.41939 19.0094 8.60582 18.4472 8.60582ZM36.0719 10.3636L31.3045 24H27.0431L22.2757 10.3636H26.2708L29.1028 20.1204H29.2449L32.068 10.3636H36.0719ZM41.5296 24.2575C40.6595 24.2575 39.8842 24.1065 39.2036 23.8047C38.5229 23.4969 37.9843 23.0442 37.5878 22.4464C37.1972 21.8427 37.0019 21.091 37.0019 20.1914C37.0019 19.4338 37.141 18.7976 37.4191 18.2827C37.6973 17.7678 38.0761 17.3535 38.5555 17.0398C39.0349 16.7261 39.5794 16.4893 40.189 16.3295C40.8045 16.1697 41.4497 16.0573 42.1244 15.9922C42.9175 15.9093 43.5567 15.8324 44.042 15.7614C44.5273 15.6844 44.8795 15.572 45.0985 15.424C45.3174 15.276 45.4269 15.0571 45.4269 14.767V14.7138C45.4269 14.1515 45.2494 13.7165 44.8943 13.4087C44.5451 13.101 44.0479 12.9471 43.4028 12.9471C42.7222 12.9471 42.1806 13.098 41.7781 13.3999C41.3757 13.6958 41.1093 14.0687 40.9791 14.5185L37.4813 14.2344C37.6588 13.4058 38.008 12.6896 38.5289 12.0859C39.0497 11.4763 39.7214 11.0088 40.5441 10.6832C41.3727 10.3518 42.3315 10.1861 43.4205 10.1861C44.1781 10.1861 44.9031 10.2749 45.5956 10.4524C46.294 10.63 46.9125 10.9052 47.4511 11.2781C47.9956 11.6509 48.4247 12.1303 48.7384 12.7163C49.0521 13.2963 49.2089 13.9917 49.2089 14.8026V24H45.6222V22.109H45.5157C45.2967 22.5352 45.0038 22.911 44.6368 23.2365C44.2699 23.5561 43.8289 23.8076 43.314 23.9911C42.7991 24.1687 42.2043 24.2575 41.5296 24.2575ZM42.6127 21.6474C43.169 21.6474 43.6602 21.5379 44.0864 21.3189C44.5125 21.094 44.8469 20.7921 45.0896 20.4134C45.3322 20.0346 45.4536 19.6055 45.4536 19.1261V17.679C45.3352 17.7559 45.1724 17.8269 44.9653 17.892C44.7641 17.9512 44.5362 18.0075 44.2817 18.0607C44.0272 18.1081 43.7727 18.1525 43.5182 18.1939C43.2637 18.2294 43.0329 18.262 42.8257 18.2915C42.3818 18.3567 41.9942 18.4602 41.6627 18.6023C41.3313 18.7443 41.0738 18.9367 40.8904 19.1793C40.7069 19.4161 40.6151 19.712 40.6151 20.0671C40.6151 20.582 40.8016 20.9756 41.1744 21.2479C41.5532 21.5142 42.0326 21.6474 42.6127 21.6474ZM54.3536 24.2308C53.7677 24.2308 53.2646 24.0237 52.8444 23.6094C52.4301 23.1892 52.2229 22.6861 52.2229 22.1001C52.2229 21.5201 52.4301 21.023 52.8444 20.6087C53.2646 20.1944 53.7677 19.9872 54.3536 19.9872C54.9218 19.9872 55.4189 20.1944 55.8451 20.6087C56.2712 21.023 56.4843 21.5201 56.4843 22.1001C56.4843 22.4908 56.3837 22.8488 56.1824 23.1744C55.9871 23.494 55.7297 23.7514 55.4101 23.9467C55.0905 24.1361 54.7383 24.2308 54.3536 24.2308Z" fill="#6B7280"/>
</svg>
