<svg width="94" height="36" viewBox="0 0 94 36" fill="none" xmlns="http://www.w3.org/2000/svg">
<path d="M22.1193 17.1563L16.5795 17.4972C16.4848 17.0237 16.2812 16.5975 15.9688 16.2188C15.6562 15.8305 15.2443 15.5227 14.733 15.2955C14.2311 15.0587 13.6297 14.9403 12.929 14.9403C11.9915 14.9403 11.2008 15.1392 10.5568 15.5369C9.91288 15.9252 9.59091 16.446 9.59091 17.0994C9.59091 17.6203 9.79924 18.0606 10.2159 18.4205C10.6326 18.7803 11.3475 19.0691 12.3608 19.2869L16.3097 20.0824C18.4309 20.518 20.0123 21.2188 21.054 22.1847C22.0956 23.1506 22.6165 24.4195 22.6165 25.9915C22.6165 27.4214 22.1951 28.6761 21.3523 29.7557C20.5189 30.8352 19.3731 31.678 17.9148 32.2841C16.4659 32.8807 14.7945 33.179 12.9006 33.179C10.0123 33.179 7.71117 32.5777 5.99716 31.375C4.29261 30.1629 3.29356 28.5152 3 26.4318L8.9517 26.1193C9.13163 27 9.56723 27.6723 10.2585 28.1364C10.9498 28.5909 11.8352 28.8182 12.9148 28.8182C13.9754 28.8182 14.8277 28.6146 15.4716 28.2074C16.125 27.7907 16.4564 27.2557 16.4659 26.6023C16.4564 26.053 16.2244 25.6032 15.7699 25.2528C15.3153 24.893 14.6146 24.6184 13.6676 24.429L9.8892 23.6761C7.75852 23.25 6.17235 22.5114 5.13068 21.4602C4.09848 20.4091 3.58239 19.0691 3.58239 17.4403C3.58239 16.0388 3.96117 14.8314 4.71875 13.8182C5.4858 12.8049 6.56061 12.0237 7.94318 11.4744C9.33523 10.9252 10.964 10.6506 12.8295 10.6506C15.5852 10.6506 17.7538 11.233 19.3352 12.3977C20.9261 13.5625 21.8542 15.1487 22.1193 17.1563Z" fill="#111827"/>
<path d="M26.4268 32.7528V10.9347H32.478V32.7528H26.4268ZM29.4666 8.12216C28.567 8.12216 27.7952 7.82386 27.1513 7.22727C26.5168 6.62121 26.1996 5.89678 26.1996 5.05398C26.1996 4.22064 26.5168 3.50568 27.1513 2.90909C27.7952 2.30303 28.567 2 29.4666 2C30.3662 2 31.1333 2.30303 31.7678 2.90909C32.4117 3.50568 32.7337 4.22064 32.7337 5.05398C32.7337 5.89678 32.4117 6.62121 31.7678 7.22727C31.1333 7.82386 30.3662 8.12216 29.4666 8.12216Z" fill="#111827"/>
<path d="M57.6662 10.9347L50.0384 32.7528H43.2202L35.5923 10.9347H41.9844L46.5156 26.5455H46.7429L51.2599 10.9347H57.6662Z" fill="#111827"/>
<path d="M66.3984 33.1648C65.0064 33.1648 63.7659 32.9233 62.6768 32.4403C61.5878 31.9479 60.7261 31.2235 60.0916 30.267C59.4666 29.3011 59.1541 28.0985 59.1541 26.6591C59.1541 25.447 59.3767 24.429 59.8217 23.6051C60.2668 22.7812 60.8729 22.1184 61.6399 21.6165C62.407 21.1146 63.2782 20.7358 64.2536 20.4801C65.2384 20.2244 66.2706 20.0445 67.3501 19.9403C68.6191 19.8078 69.6418 19.6847 70.4183 19.571C71.1948 19.4479 71.7583 19.268 72.1087 19.0313C72.459 18.7945 72.6342 18.4441 72.6342 17.9801V17.8949C72.6342 16.9953 72.3501 16.2992 71.782 15.8068C71.2233 15.3144 70.4278 15.0682 69.3956 15.0682C68.3066 15.0682 67.4401 15.3097 66.7962 15.7926C66.1522 16.2661 65.7261 16.8627 65.5178 17.5824L59.9212 17.1278C60.2053 15.8021 60.764 14.6562 61.5973 13.6903C62.4306 12.715 63.5054 11.9669 64.8217 11.446C66.1475 10.9157 67.6816 10.6506 69.424 10.6506C70.6361 10.6506 71.7962 10.7926 72.9041 11.0767C74.0215 11.3608 75.0111 11.8011 75.8729 12.3977C76.7441 12.9943 77.4306 13.7614 77.9325 14.6989C78.4344 15.6269 78.6854 16.7396 78.6854 18.0369V32.7528H72.9467V29.7273H72.7763C72.4259 30.4091 71.9571 31.0104 71.37 31.5313C70.7829 32.0426 70.0774 32.4451 69.2535 32.7386C68.4297 33.0227 67.478 33.1648 66.3984 33.1648ZM68.1314 28.9886C69.0215 28.9886 69.8075 28.8134 70.4893 28.4631C71.1712 28.1032 71.7062 27.6203 72.0945 27.0142C72.4827 26.4081 72.6768 25.7216 72.6768 24.9545V22.6392C72.4875 22.7623 72.227 22.8759 71.8956 22.9801C71.5736 23.0748 71.209 23.1648 70.8018 23.25C70.3947 23.3258 69.9874 23.3968 69.5803 23.4631C69.1731 23.5199 68.8037 23.572 68.4723 23.6193C67.7621 23.7235 67.1418 23.8892 66.6115 24.1165C66.0812 24.3438 65.6693 24.6515 65.3757 25.0398C65.0821 25.4186 64.9354 25.892 64.9354 26.4602C64.9354 27.2841 65.2337 27.9138 65.8303 28.3494C66.4363 28.7756 67.2034 28.9886 68.1314 28.9886Z" fill="#111827"/>
<path d="M86.9169 33.1222C85.9794 33.1222 85.1745 32.7907 84.5021 32.1278C83.8392 31.4555 83.5078 30.6506 83.5078 29.7131C83.5078 28.785 83.8392 27.9896 84.5021 27.3267C85.1745 26.6638 85.9794 26.3324 86.9169 26.3324C87.826 26.3324 88.6215 26.6638 89.3033 27.3267C89.9851 27.9896 90.326 28.785 90.326 29.7131C90.326 30.3381 90.165 30.911 89.843 31.4318C89.5305 31.9432 89.1186 32.3551 88.6072 32.6676C88.0959 32.9706 87.5324 33.1222 86.9169 33.1222Z" fill="#4F46E5"/>
</svg>
