<svg width="40" height="40" viewBox="0 0 40 40" fill="none" xmlns="http://www.w3.org/2000/svg">
<path d="M25.9503 14.469L19.5903 14.8604C19.4815 14.3168 19.2478 13.8275 18.889 13.3927C18.5303 12.9469 18.0573 12.5936 17.4703 12.3327C16.894 12.0609 16.2037 11.925 15.3992 11.925C14.3228 11.925 13.415 12.1533 12.6758 12.6099C11.9365 13.0556 11.5668 13.6536 11.5668 14.4037C11.5668 15.0017 11.806 15.5072 12.2844 15.9204C12.7627 16.3335 13.5836 16.6651 14.7468 16.9151L19.2804 17.8284C21.7157 18.3285 23.5313 19.133 24.7272 20.2419C25.9231 21.3509 26.5211 22.8077 26.5211 24.6124C26.5211 26.2541 26.0373 27.6946 25.0697 28.934C24.113 30.1734 22.7975 31.141 21.1232 31.8368C19.4598 32.5217 17.5409 32.8642 15.3665 32.8642C12.0506 32.8642 9.40876 32.1738 7.44095 30.7931C5.48401 29.4015 4.33703 27.5098 4 25.118L10.833 24.7592C11.0395 25.7703 11.5396 26.5422 12.3333 27.0749C13.1269 27.5968 14.1435 27.8577 15.3829 27.8577C16.6005 27.8577 17.579 27.6239 18.3183 27.1565C19.0684 26.6781 19.4489 26.0638 19.4598 25.3137C19.4489 24.6831 19.1826 24.1667 18.6607 23.7644C18.1389 23.3513 17.3344 23.036 16.2472 22.8186L11.9093 21.9543C9.46312 21.465 7.64208 20.617 6.44617 19.4102C5.26114 18.2035 4.66862 16.6651 4.66862 14.7951C4.66862 13.1861 5.1035 11.7999 5.97324 10.6366C6.85387 9.47335 8.08782 8.57642 9.67512 7.94585C11.2733 7.31528 13.1432 7 15.285 7C18.4487 7 20.9384 7.66862 22.754 9.00586C24.5805 10.3431 25.6459 12.1641 25.9503 14.469Z" fill="#111827"/>
<path d="M32.0861 32.799C31.0098 32.799 30.0857 32.4184 29.3138 31.6574C28.5528 30.8855 28.1723 29.9614 28.1723 28.8851C28.1723 27.8196 28.5528 26.9064 29.3138 26.1454C30.0857 25.3843 31.0098 25.0038 32.0861 25.0038C33.1298 25.0038 34.0431 25.3843 34.8258 26.1454C35.6086 26.9064 36 27.8196 36 28.8851C36 29.6026 35.8152 30.2604 35.4455 30.8583C35.0868 31.4454 34.6138 31.9183 34.0268 32.2771C33.4397 32.625 32.7928 32.799 32.0861 32.799Z" fill="#4F46E5"/>
</svg>
