<svg width="80" height="80" viewBox="0 0 80 80" fill="none" xmlns="http://www.w3.org/2000/svg">
<g clip-path="url(#clip0_1253_17090)">
<path d="M62 0H18C8.05887 0 0 8.05887 0 18V62C0 71.9411 8.05887 80 18 80H62C71.9411 80 80 71.9411 80 62V18C80 8.05887 71.9411 0 62 0Z" fill="#4F46E5"/>
<path d="M40.5291 30.6038C40.3691 28.956 39.6828 27.6759 38.47 26.7634C37.2572 25.851 35.6113 25.3948 33.5323 25.3948C32.1196 25.3948 30.9269 25.599 29.954 26.0076C28.9811 26.4025 28.2348 26.9541 27.715 27.6622C27.2086 28.3704 26.9554 29.1739 26.9554 30.0727C26.9287 30.8217 27.082 31.4754 27.4152 32.0337C27.7617 32.5921 28.2348 33.0755 28.8345 33.4841C29.4342 33.879 30.1272 34.2263 30.9135 34.5259C31.6998 34.8119 32.5394 35.057 33.4324 35.2613L37.1107 36.1601C38.8965 36.5686 40.5357 37.1134 42.0284 37.7943C43.521 38.4752 44.8137 39.3127 45.9066 40.3069C46.9994 41.301 47.8457 42.4722 48.4454 43.8204C49.0584 45.1686 49.3716 46.7143 49.3849 48.4575C49.3716 51.0177 48.7319 53.2375 47.4658 55.1169C46.2131 56.9826 44.4006 58.4329 42.0284 59.4679C39.6695 60.4893 36.8241 61 33.4923 61C30.1872 61 27.3085 60.4825 24.8563 59.4475C22.4175 58.4125 20.5117 56.8804 19.139 54.8513C17.7796 52.8086 17.0666 50.2823 17 47.2727H25.3761C25.4694 48.6754 25.8625 49.8466 26.5556 50.7862C27.2619 51.7123 28.2015 52.4136 29.3742 52.8903C30.5604 53.3533 31.8997 53.5848 33.3924 53.5848C34.8584 53.5848 36.1311 53.3669 37.2106 52.9311C38.3034 52.4953 39.1497 51.8893 39.7494 51.1131C40.3491 50.3368 40.649 49.4448 40.649 48.4371C40.649 47.4974 40.3758 46.7075 39.8294 46.0675C39.2963 45.4274 38.51 44.8827 37.4705 44.4333C36.4443 43.9838 35.1849 43.5753 33.6922 43.2076L29.2343 42.0637C25.7826 41.2057 23.0572 39.8643 21.0581 38.0394C19.059 36.2146 18.0662 33.7565 18.0795 30.6651C18.0662 28.1321 18.7259 25.9191 20.0586 24.0261C21.4046 22.1332 23.2504 20.6556 25.596 19.5933C27.9416 18.5311 30.607 18 33.5923 18C36.6309 18 39.283 18.5311 41.5486 19.5933C43.8275 20.6556 45.6 22.1332 46.8661 24.0261C48.1322 25.9191 48.7852 28.1116 48.8252 30.6038H40.5291Z" fill="white"/>
<path d="M57.7325 61C56.0089 61 54.5291 60.4005 53.293 59.2016C52.0743 57.9856 51.465 56.5297 51.465 54.8341C51.465 53.1556 52.0743 51.7169 53.293 50.518C54.5291 49.3191 56.0089 48.7196 57.7325 48.7196C59.4038 48.7196 60.8662 49.3191 62.1197 50.518C63.3732 51.7169 64 53.1556 64 54.8341C64 55.9645 63.704 57.0007 63.1121 57.9428C62.5376 58.8676 61.7803 59.6127 60.8401 60.1779C59.9 60.726 58.8641 61 57.7325 61Z" fill="white"/>
</g>
<defs>
<clipPath id="clip0_1253_17090">
<rect width="80" height="80" fill="white"/>
</clipPath>
</defs>
</svg>
