<svg width="512" height="512" viewBox="0 0 512 512" fill="none" xmlns="http://www.w3.org/2000/svg">
<g clip-path="url(#clip0_1255_17165)">
<path d="M400 0H112C50.1441 0 0 50.1441 0 112V400C0 461.856 50.1441 512 112 512H400C461.856 512 512 461.856 512 400V112C512 50.1441 461.856 0 400 0Z" fill="#4F46E5"/>
<path d="M256.661 206.054C255.773 196.895 251.962 189.78 245.227 184.708C238.492 179.637 229.352 177.101 217.807 177.101C209.962 177.101 203.339 178.237 197.936 180.507C192.533 182.702 188.389 185.768 185.503 189.704C182.69 193.64 181.284 198.106 181.284 203.102C181.136 207.265 181.987 210.898 183.837 214.001C185.762 217.105 188.389 219.792 191.719 222.063C195.05 224.258 198.898 226.188 203.265 227.853C207.631 229.443 212.294 230.805 217.252 231.941L237.678 236.936C247.595 239.207 256.698 242.235 264.987 246.019C273.276 249.804 280.455 254.459 286.524 259.985C292.592 265.51 297.292 272.02 300.622 279.514C304.027 287.007 305.766 295.598 305.84 305.287C305.766 319.517 302.213 331.855 295.183 342.301C288.226 352.671 278.161 360.732 264.987 366.485C251.888 372.162 236.087 375 217.585 375C199.231 375 183.245 372.124 169.628 366.371C156.084 360.618 145.501 352.103 137.878 340.825C130.329 329.471 126.37 315.43 126 298.702H172.514C173.032 306.498 175.215 313.008 179.064 318.23C182.986 323.378 188.204 327.276 194.717 329.925C201.303 332.498 208.741 333.785 217.03 333.785C225.171 333.785 232.239 332.574 238.233 330.152C244.302 327.73 249.002 324.362 252.332 320.047C255.662 315.733 257.327 310.775 257.327 305.173C257.327 299.951 255.81 295.56 252.776 292.003C249.816 288.445 245.449 285.418 239.677 282.92C233.978 280.422 226.984 278.151 218.695 276.107L193.939 269.749C174.771 264.981 159.637 257.525 148.535 247.382C137.434 237.239 131.921 223.577 131.995 206.394C131.921 192.315 135.584 180.015 142.985 169.494C150.46 158.973 160.71 150.76 173.735 144.856C186.761 138.952 201.562 136 218.14 136C235.014 136 249.742 138.952 262.323 144.856C274.978 150.76 284.821 158.973 291.852 169.494C298.883 180.015 302.509 192.202 302.731 206.054H256.661Z" fill="white"/>
<path d="M352.195 375C342.624 375 334.406 371.668 327.542 365.004C320.774 358.245 317.391 350.154 317.391 340.729C317.391 331.4 320.774 323.403 327.542 316.74C334.406 310.076 342.624 306.744 352.195 306.744C361.477 306.744 369.598 310.076 376.559 316.74C383.52 323.403 387 331.4 387 340.729C387 347.012 385.356 352.772 382.069 358.007C378.879 363.148 374.673 367.289 369.453 370.431C364.232 373.477 358.48 375 352.195 375Z" fill="white"/>
</g>
<defs>
<clipPath id="clip0_1255_17165">
<rect width="512" height="512" fill="white"/>
</clipPath>
</defs>
</svg>
