<svg width="32" height="32" viewBox="0 0 32 32" fill="none" xmlns="http://www.w3.org/2000/svg">
<g clip-path="url(#clip0_1253_17070)">
<path d="M24 0H8C3.58172 0 0 3.58172 0 8V24C0 28.4183 3.58172 32 8 32H24C28.4183 32 32 28.4183 32 24V8C32 3.58172 28.4183 0 24 0Z" fill="#4F46E5"/>
<path d="M16.0136 11.8622C15.9387 11.0958 15.6175 10.5004 15.0498 10.076C14.4821 9.65162 13.7117 9.43943 12.7385 9.43943C12.0773 9.43943 11.519 9.53444 11.0636 9.72447C10.6082 9.90816 10.2588 10.1647 10.0155 10.4941C9.77849 10.8234 9.65996 11.1971 9.65996 11.6152C9.64748 11.9636 9.71922 12.2676 9.87518 12.5273C10.0374 12.787 10.2588 13.0119 10.5396 13.2019C10.8203 13.3856 11.1447 13.5471 11.5127 13.6865C11.8808 13.8195 12.2738 13.9335 12.6917 14.0285L14.4135 14.4466C15.2494 14.6366 16.0167 14.8899 16.7154 15.2066C17.4141 15.5234 18.0192 15.9129 18.5307 16.3753C19.0423 16.8377 19.4384 17.3824 19.7191 18.0095C20.0061 18.6366 20.1527 19.3555 20.1589 20.1663C20.1527 21.3571 19.8532 22.3895 19.2606 23.2637C18.6742 24.1314 17.8258 24.806 16.7154 25.2874C15.6112 25.7625 14.2794 26 12.7198 26C11.1727 26 9.82527 25.7593 8.67744 25.2779C7.53584 24.7965 6.64377 24.0839 6.00124 23.1401C5.36494 22.19 5.03119 21.015 5 19.6152H8.92073C8.9644 20.2676 9.14843 20.8124 9.47281 21.2494C9.80344 21.6801 10.2432 22.0063 10.7922 22.228C11.3474 22.4434 11.9743 22.5511 12.673 22.5511C13.3592 22.5511 13.955 22.4497 14.4603 22.247C14.9718 22.0443 15.3679 21.7625 15.6487 21.4014C15.9294 21.0404 16.0697 20.6255 16.0697 20.1568C16.0697 19.7197 15.9419 19.3523 15.6861 19.0546C15.4366 18.7569 15.0685 18.5036 14.5819 18.2945C14.1016 18.0855 13.5121 17.8955 12.8134 17.7245L10.7267 17.1924C9.111 16.7933 7.83528 16.1694 6.89954 15.3207C5.96381 14.4719 5.49906 13.3286 5.5053 11.8907C5.49906 10.7126 5.80785 9.68329 6.43167 8.80285C7.06174 7.92241 7.92573 7.23515 9.02366 6.74109C10.1216 6.24703 11.3692 6 12.7666 6C14.1889 6 15.4303 6.24703 16.4908 6.74109C17.5576 7.23515 18.3873 7.92241 18.9799 8.80285C19.5725 9.68329 19.8782 10.7031 19.8969 11.8622H16.0136Z" fill="white"/>
<path d="M24.0663 26C23.2595 26 22.5668 25.7212 21.9882 25.1635C21.4178 24.5979 21.1325 23.9208 21.1325 23.1322C21.1325 22.3515 21.4178 21.6823 21.9882 21.1247C22.5668 20.567 23.2595 20.2882 24.0663 20.2882C24.8486 20.2882 25.5331 20.567 26.1199 21.1247C26.7066 21.6823 27 22.3515 27 23.1322C27 23.6579 26.8615 24.1399 26.5844 24.578C26.3155 25.0082 25.961 25.3547 25.5209 25.6176C25.0809 25.8725 24.596 26 24.0663 26Z" fill="white"/>
</g>
<defs>
<clipPath id="clip0_1253_17070">
<rect width="32" height="32" fill="white"/>
</clipPath>
</defs>
</svg>
