<svg width="16" height="16" viewBox="0 0 16 16" fill="none" xmlns="http://www.w3.org/2000/svg">
<g clip-path="url(#clip0_1253_17064)">
<path d="M12 0H4C1.79086 0 0 1.79086 0 4V12C0 14.2091 1.79086 16 4 16H12C14.2091 16 16 14.2091 16 12V4C16 1.79086 14.2091 0 12 0Z" fill="#4F46E5"/>
<path d="M8.00618 6.638C7.97216 6.29311 7.82613 6.02518 7.56809 5.8342C7.31005 5.64323 6.95986 5.54774 6.51751 5.54774C6.21694 5.54774 5.96316 5.5905 5.75617 5.67601C5.54917 5.75867 5.39038 5.87411 5.27979 6.02233C5.17204 6.17055 5.11816 6.33872 5.11816 6.52684C5.11249 6.68361 5.1451 6.82043 5.21599 6.93729C5.28972 7.05416 5.39038 7.15534 5.51798 7.24086C5.64558 7.32352 5.79303 7.3962 5.96033 7.45891C6.12762 7.51876 6.30626 7.57007 6.49625 7.61283L7.27886 7.80095C7.65883 7.88646 8.0076 8.00047 8.32518 8.14299C8.64277 8.28551 8.91782 8.46081 9.15033 8.66888C9.38285 8.87696 9.56291 9.12209 9.69051 9.40428C9.82094 9.68646 9.88758 10.01 9.89041 10.3748C9.88758 10.9107 9.75147 11.3753 9.48209 11.7686C9.21555 12.1591 8.82991 12.4627 8.32518 12.6793C7.82329 12.8931 7.2179 13 6.50901 13C5.80579 13 5.19331 12.8917 4.67156 12.6751C4.15266 12.4584 3.74717 12.1378 3.45511 11.7131C3.16588 11.2855 3.01418 10.7568 3 10.1268H4.78215C4.802 10.4204 4.88565 10.6656 5.0331 10.8622C5.18338 11.0561 5.38329 11.2029 5.63282 11.3026C5.88518 11.3995 6.17016 11.448 6.48774 11.448C6.79965 11.448 7.07045 11.4024 7.30013 11.3112C7.53265 11.22 7.7127 11.0931 7.8403 10.9306C7.9679 10.7682 8.0317 10.5815 8.0317 10.3705C8.0317 10.1739 7.97358 10.0086 7.85732 9.87458C7.74389 9.74062 7.5766 9.6266 7.35542 9.53254C7.13708 9.43848 6.86912 9.35297 6.55154 9.27601L5.60305 9.03658C4.86864 8.85701 4.28876 8.57625 3.86343 8.1943C3.43809 7.81235 3.22684 7.29786 3.22968 6.65083C3.22684 6.12066 3.36721 5.65748 3.65076 5.26128C3.93715 4.86508 4.32988 4.55582 4.82894 4.33349C5.328 4.11116 5.89511 4 6.53027 4C7.17678 4 7.74106 4.11116 8.2231 4.33349C8.70798 4.55582 9.08511 4.86508 9.35449 5.26128C9.62387 5.65748 9.76281 6.11639 9.77132 6.638H8.00618Z" fill="white"/>
<path d="M11.6665 13C11.2998 13 10.9849 12.8745 10.7219 12.6236C10.4626 12.3691 10.333 12.0644 10.333 11.7095C10.333 11.3582 10.4626 11.057 10.7219 10.8061C10.9849 10.5552 11.2998 10.4297 11.6665 10.4297C12.0221 10.4297 12.3332 10.5552 12.5999 10.8061C12.8666 11.057 13 11.3582 13 11.7095C13 11.9461 12.937 12.1629 12.8111 12.3601C12.6888 12.5537 12.5277 12.7096 12.3277 12.8279C12.1277 12.9426 11.9073 13 11.6665 13Z" fill="white"/>
</g>
<defs>
<clipPath id="clip0_1253_17064">
<rect width="16" height="16" fill="white"/>
</clipPath>
</defs>
</svg>
